PathFileType	3	(X/Y/Z)	F:\ViconData\AntennenMessung\Messung1\Session1\ID04.trc
DataRate	CameraRate	NumFrames	NumMarkers	Units	OrigDataRate	OrigDataStartFrame	OrigNumFrames
120.0	120.0	5	70	mm	120.0	1010	1154	
Frame#	Time	Ashort			Along			Atop			A4			Bshort			Blong			Btop			B4			Cshort			Clong			Ctop			C4			Dshort			Dlong			Dtop			D4			Eshort			Elong			Etop			E4			Fshort			Flong			Ftop			F4			Gshort			Glong			Gtop			G4			Hshort			Hlong			Htop			H4			I1			I2			I3			I4			I5			WandAshort			WandAlong			WandAtop			WandA4			WandA15			WandBshort			WandB4			WandB5			WandBtop			WandBlong			WandCshort			WandClong			WandCtop			WandC4			WandC5			Acenter			Aantenna			Bcenter			Bantenna			Ccenter			Cantenna			Dcenter			Dantenna			Ecenter			Eantenna			Fcenter			Fantenna			Gcenter			Gantenna			Hcenter			Hantenna			Icenter			Iantenna			
		X1	Y1	Z1	X2	Y2	Z2	X3	Y3	Z3	X4	Y4	Z4	X5	Y5	Z5	X6	Y6	Z6	X7	Y7	Z7	X8	Y8	Z8	X9	Y9	Z9	X10	Y10	Z10	X11	Y11	Z11	X12	Y12	Z12	X13	Y13	Z13	X14	Y14	Z14	X15	Y15	Z15	X16	Y16	Z16	X17	Y17	Z17	X18	Y18	Z18	X19	Y19	Z19	X20	Y20	Z20	X21	Y21	Z21	X22	Y22	Z22	X23	Y23	Z23	X24	Y24	Z24	X25	Y25	Z25	X26	Y26	Z26	X27	Y27	Z27	X28	Y28	Z28	X29	Y29	Z29	X30	Y30	Z30	X31	Y31	Z31	X32	Y32	Z32	X33	Y33	Z33	X34	Y34	Z34	X35	Y35	Z35	X36	Y36	Z36	X37	Y37	Z37	X38	Y38	Z38	X39	Y39	Z39	X40	Y40	Z40	X41	Y41	Z41	X42	Y42	Z42	X43	Y43	Z43	X44	Y44	Z44	X45	Y45	Z45	X46	Y46	Z46	X47	Y47	Z47	X48	Y48	Z48	X49	Y49	Z49	X50	Y50	Z50	X51	Y51	Z51	X52	Y52	Z52	X53	Y53	Z53	X54	Y54	Z54	X55	Y55	Z55	X56	Y56	Z56	X57	Y57	Z57	X58	Y58	Z58	X59	Y59	Z59	X60	Y60	Z60	X61	Y61	Z61	X62	Y62	Z62	X63	Y63	Z63	X64	Y64	Z64	X65	Y65	Z65	X66	Y66	Z66	X67	Y67	Z67	X68	Y68	Z68	X69	Y69	Z69	X70	Y70	Z70	
1010	8.4083333	-1038.2897	214.48236	-1644.2186	-1109.3102	203.42955	-1599.5461	-1063.5817	173.06506	-1625.7839	-1054.1729	262.09064	-1634.9685	-1353.0437	235.20703	1003.8171	-1281.3867	227.31673	1052.1487	-1323.1407	194.16362	1020.826	-1284.7153	287.85132	1052.7906	813.78125	187.7325	1209.4395	892.33972	178.3846	1179.2441	844.26929	145.47864	1198.21	860.54083	292.57916	1167.2612	1115.776	209.71767	-1401.7189	1056.2101	193.99522	-1460.1412	1094.9592	162.18684	-1423.8917	1069.823	238.56396	-1425.9531	-1204.5176	1686.0137	-1563.2034	-1129.12	1688.2443	-1606.09	-1173.1194	1724.3685	-1581.976	-1133.5729	1581.0776	-1603.5581	-1239.7034	1699.219	1119.2743	-1309.4727	1698.8256	1071.6595	-1270.3514	1736.1486	1096.662	-1244.5073	1594.7578	1106.3549	988.85162	1664.2693	1162.2628	957.40204	1700.3619	1183.6783	922.47919	1661.9954	1214.844	939.80298	1659.3018	1159.8965	999.1803	1668.5607	-1579.5608	1058.8744	1670.1682	-1518.6439	1025.0487	1708.0159	-1551.1597	1059.2791	1672.1522	-1585.5659	-287.25269	140.27699	479.87061	-371.60678	147.38516	481.18536	-327.64645	105.79218	481.18942	-324.02063	145.08923	512.34772	-324.72653	141.41275	434.27448																																														-1068.809	209.7327	-1625.0219	-1074.3118	248.33417	-1624.2195	-1321.7601	231.76233	1024.9174	-1320.3375	270.50766	1029.1334	848.06317	183.6532	1196.2625	851.91522	222.41208	1194.2853	1088.6503	202.55783	-1428.3236	1082.6637	240.86546	-1432.5291	-1171.8912	1686.9788	-1581.7612	-1170.611	1648.0005	-1581.5376	-1270.9984	1699.0425	1097.9166	-1271.678	1660.0707	1099.2344	953.04553	1705.3615	1186.6449	972.88586	1733.51	1168.3412	1026.5607	1669.298	-1551.6194	1028.0824	1630.3303	-1552.0823	-324.48767	143.41463	480.45096	-321.22534	182.27046	479.68832
1011	8.4166667	-1038.3177	214.52858	-1644.2538	-1109.2789	203.38414	-1599.5236	-1063.6586	172.63701	-1625.5701	-1054.1415	262.11868	-1634.9845	-1353.0472	235.13922	1003.8771	-1281.3644	227.31108	1052.129	-1323.0411	194.23833	1020.7667	-1284.5272	287.90176	1052.7025	813.79218	187.66281	1209.502	892.46216	178.43164	1179.1407	844.29401	145.53035	1198.1317	860.37469	292.44678	1167.1954	1115.7714	209.72644	-1401.7247	1056.1602	193.91412	-1460.1078	1094.9518	162.20409	-1423.8888	1069.8385	238.56657	-1425.9491	-1204.5162	1686.0057	-1563.2086	-1129.1379	1688.2129	-1606.0587	-1173.1577	1724.3232	-1581.9152	-1133.5441	1581.0223	-1603.4974	-1239.7074	1699.2213	1119.2694	-1309.4863	1698.8796	1071.6871	-1270.3722	1736.1847	1096.6826	-1244.6428	1594.4663	1106.597	988.81781	1664.2523	1162.2537	957.42505	1700.3212	1183.6884	922.09448	1662.1884	1214.7833	939.79694	1659.3369	1159.8469	999.19061	1668.5547	-1579.5291	1058.8496	1670.1527	-1518.6398	1025.0428	1708.0143	-1551.1558	1059.2783	1672.1732	-1585.5966	-287.33078	140.14894	480.12	-371.63989	147.45638	481.16681	-327.61133	105.78663	481.14188	-324.05798	145.08664	512.34119	-324.76978	141.39702	434.30066																																														-1069.047	209.70253	-1624.8835	-1074.6567	248.29036	-1624.1688	-1321.7566	231.72212	1024.9398	-1320.4292	270.46017	1029.2526	848.05157	183.64279	1196.2802	851.8736	222.40933	1194.3969	1088.6067	202.5208	-1428.3296	1082.5792	240.82057	-1432.5483	-1171.9526	1686.9591	-1581.7198	-1170.6956	1647.9799	-1581.5162	-1271.0283	1699.0679	1097.9115	-1271.7173	1660.0952	1099.2018	952.84943	1705.5784	1186.8125	972.80994	1733.7391	1168.6591	1026.5446	1669.2874	-1551.6108	1028.0557	1630.3192	-1552.0687	-324.36176	143.35857	480.57977	-321.00162	182.2092	479.99857
1012	8.425	-1038.2635	214.48662	-1644.226	-1109.3032	203.37492	-1599.5371	-1063.6138	173.08521	-1625.7748	-1054.0266	262.05011	-1634.9945	-1353.1157	235.01987	1003.9186	-1281.3104	227.16907	1052.2384	-1323.0616	194.21655	1020.7586	-1284.5464	287.88626	1052.7025	813.78192	187.69794	1209.5411	892.39276	178.38631	1179.2281	844.22644	145.5515	1198.1257	860.37927	292.38937	1167.2532	1115.7692	209.72046	-1401.7047	1056.1401	193.95796	-1460.1573	1094.984	162.37442	-1423.9639	1069.8375	238.56393	-1425.9771	-1204.4642	1685.9529	-1563.3405	-1129.151	1688.3378	-1606.5835	-1173.1296	1724.379	-1581.9799	-1133.5822	1581.0573	-1603.5378	-1239.7323	1699.255	1119.2855	-1309.6052	1699.0562	1071.7579	-1270.3325	1736.1079	1096.6505	-1244.538	1594.5913	1106.3141	988.80988	1664.2416	1162.2245	957.35956	1700.3646	1183.6216	922.64301	1661.9821	1214.7622	939.7265	1659.3362	1159.882	999.20367	1668.5558	-1579.5344	1058.7128	1669.9773	-1518.6768	1025.0475	1708.0104	-1551.1526	1059.2786	1672.1793	-1585.601	-287.22974	140.24896	479.82916	-371.57397	147.36252	481.19104	-327.64825	105.81786	481.20331	-324.07538	145.08366	512.3031	-324.7775	141.41849	434.29865																																														-1068.8461	209.70303	-1624.9873	-1074.3616	248.30214	-1624.1575	-1321.8159	231.59772	1024.9811	-1320.5253	270.33005	1029.3561	848.0451	183.63936	1196.3289	851.93158	222.40213	1194.5004	1088.6268	202.54559	-1428.3115	1082.5654	240.84801	-1432.4568	-1171.9592	1686.9822	-1582.0038	-1170.7393	1648.0013	-1582.0289	-1271.1073	1699.1655	1097.944	-1271.9246	1660.1981	1099.3086	953.11169	1705.2434	1186.5114	972.92194	1733.3711	1168.1433	1026.4766	1669.2072	-1551.6433	1027.9115	1630.2366	-1552.1365	-324.49173	143.39162	480.43079	-321.22763	182.24657	479.63193
1013	8.4333333	-1038.2968	214.51883	-1644.2356	-1109.3237	203.39917	-1599.5321	-1063.6272	173.06906	-1625.7451	-1054.141	262.11673	-1634.9701	-1353.0609	235.03705	1003.8692	-1281.3761	227.34666	1052.0642	-1323.1897	194.13045	1020.8607	-1284.5132	287.91901	1052.6696	813.83197	187.71857	1209.5457	892.40509	178.28941	1179.2394	844.42505	145.22978	1198.1698	860.4259	292.40897	1167.282	1115.7734	209.70735	-1401.7124	1056.1652	193.93269	-1460.1097	1094.9957	162.29379	-1423.8912	1069.8105	238.54057	-1425.9531	-1204.4518	1685.936	-1563.3262	-1129.1221	1688.2255	-1606.0986	-1173.1173	1724.3759	-1581.9728	-1133.5597	1581.0654	-1603.537	-1239.7197	1699.2592	1119.2952	-1309.5316	1698.9344	1071.7039	-1270.3689	1736.1902	1096.6805	-1244.5649	1594.5691	1106.5819	988.83313	1664.271	1162.2627	957.3111	1700.392	1183.6666	921.99255	1662.1925	1214.7366	939.76654	1659.3185	1159.9065	999.21356	1668.5426	-1579.5195	1058.7164	1669.9763	-1518.6982	1025.0514	1708.012	-1551.1576	1059.269	1672.1549	-1585.5935	-287.30969	140.18364	480.00165	-371.64368	147.43033	481.15796	-327.57932	105.84747	481.17593	-324.07162	145.11604	512.30536	-324.81213	141.42657	434.30734																																														-1068.8867	209.72978	-1624.9824	-1074.4241	248.32632	-1624.1798	-1321.8462	231.68831	1024.8552	-1320.4598	270.44504	1028.9775	848.28912	183.58353	1196.2552	852.19385	222.33931	1194.3204	1088.651	202.52971	-1428.2837	1082.6115	240.83167	-1432.4652	-1171.8894	1686.9257	-1581.8151	-1170.6116	1647.9468	-1581.6511	-1271.0521	1699.1133	1097.9355	-1271.7701	1660.1422	1099.2549	952.75372	1705.6143	1186.761	972.7088	1733.7823	1168.6129	1026.4843	1669.1997	-1551.6444	1027.923	1630.2294	-1552.1334	-324.36438	143.36769	480.5097	-321.0354	182.21924	479.81982
1014	8.4416667	-1038.2897	214.50774	-1644.2347	-1109.3191	203.46375	-1599.5592	-1063.5406	173.11168	-1625.7758	-1054.1588	262.09479	-1634.9694	-1353.0452	235.18361	1003.9035	-1281.3744	227.3826	1052.1851	-1323.1396	194.15907	1020.785	-1284.6082	287.86682	1052.7684	813.83875	187.61967	1209.5385	892.33124	178.28101	1179.2809	844.59998	145.20924	1198.2297	860.46228	292.53403	1167.2244	1115.7766	209.70631	-1401.7219	1056.2054	194.08081	-1460.228	1095.0103	162.37677	-1423.9896	1069.8503	238.56296	-1425.9252	-1204.5049	1686.0099	-1563.2126	-1129.1588	1688.3418	-1606.5826	-1173.1229	1724.3755	-1581.9727	-1133.5438	1581.026	-1603.4855	-1239.6881	1699.2205	1119.28	-1309.4631	1698.875	1071.6853	-1270.3744	1736.1968	1096.6798	-1244.6648	1593.9841	1106.251	988.78601	1664.2168	1162.2754	957.4165	1700.3729	1183.6931	922.14484	1662.1058	1214.7391	939.80115	1659.3043	1159.8936	999.20044	1668.5494	-1579.5448	1058.868	1670.1589	-1518.6387	1025.0483	1708.0194	-1551.1492	1059.2842	1672.0952	-1585.4602	-287.30804	140.14534	480.07861	-371.56311	147.33354	481.20074	-327.62598	105.78066	481.20251	-324.0383	145.11476	512.33722	-324.72675	141.37178	434.30609																																														-1068.7856	209.76607	-1625.0535	-1074.3088	248.36549	-1624.2931	-1321.8353	231.78656	1024.9282	-1320.4922	270.52927	1029.1943	848.38281	183.50977	1196.2222	852.211	222.26822	1194.1907	1088.7029	202.60492	-1428.3115	1082.6957	240.91902	-1432.4276	-1171.9534	1687.0173	-1581.9495	-1170.733	1648.0364	-1581.9255	-1271.0256	1699.0652	1097.9041	-1271.7092	1660.0924	1099.1891	952.99292	1705.4714	1186.7134	972.9953	1733.5903	1168.541	1026.5654	1669.2876	-1551.6117	1028.0918	1630.3202	-1552.0771	-324.43234	143.31259	480.57303	-321.12616	182.16673	479.92139
